<svg xmlns="http://www.w3.org/2000/svg" viewBox="0 0 49.84 49.84">
  <defs>
    <style>
      .d8bfe8c8-e1e1-4306-b0b2-456ed7c74bc7 {
        isolation: isolate;
      }

      .\36 2a87e57-f018-4b7b-96ac-80a229d194b2 {
        fill: #2d5016;
      }

      .\36 b179b56-afb0-485a-8906-db1e23831ff1 {
        fill: none;
      }

      .fed032d2-50db-4151-b419-bfcee5baa82a {
        fill: #1a3a0f;
      }

      .b9b85f1f-7ad4-4def-ac23-e6a9e8139ccb, .d32e3914-e0f1-44fb-b63e-bf770cfa51a2 {
        fill: url(#leafyPattern);
      }

      .e17d4a3f-b00b-4fd1-947c-2a2db5c540c3 {
        fill: #3a6042;
      }

      .a2e80ed7-95db-443a-bfc7-fd8ce0814540, .d32e3914-e0f1-44fb-b63e-bf770cfa51a2, .e17d4a3f-b00b-4fd1-947c-2a2db5c540c3 {
        mix-blend-mode: hard-light;
      }

      .c28cb72d-2ec3-408f-9d3c-18683f771e82 {
        fill: #5a8c6f;
      }

      .a2e80ed7-95db-443a-bfc7-fd8ce0814540 {
        fill: #2d5016;
      }

      .\37 c7880a8-b000-4c03-aa93-8f90614d78fe {
        fill: #fff;
      }
    </style>
    
    <!-- Leafy pattern definition -->
    <pattern id="leafyPattern" patternUnits="userSpaceOnUse" width="8" height="8" patternTransform="rotate(15)">
      <!-- Base color -->
      <rect width="8" height="8" fill="#4a7c59"/>
      
      <!-- Leaf shapes scattered across pattern -->
      <path d="M1,2 Q3,1 4,3 Q3,5 1,2" fill="#5a8c6f" opacity="0.8"/>
      <path d="M6,1 Q7.5,0.5 8,2 Q7.5,3.5 6,1" fill="#3a6042" opacity="0.6"/>
      <path d="M2,6 Q4,5.5 5,7 Q4,8.5 2,6" fill="#5a8c6f" opacity="0.7"/>
      <path d="M7,5 Q8.5,4.5 9,6 Q8.5,7.5 7,5" fill="#2d5016" opacity="0.5"/>
      <path d="M0.5,4.5 Q2,4 2.5,5.5 Q2,7 0.5,4.5" fill="#5a8c6f" opacity="0.9"/>
      <path d="M4.5,0.5 Q6,0 6.5,1.5 Q6,3 4.5,0.5" fill="#3a6042" opacity="0.7"/>
      
      <!-- Small leaf details -->
      <circle cx="3.5" cy="3.5" r="0.3" fill="#5a8c6f" opacity="0.6"/>
      <circle cx="1.5" cy="6.5" r="0.2" fill="#3a6042" opacity="0.8"/>
      <circle cx="6.5" cy="2.5" r="0.25" fill="#5a8c6f" opacity="0.5"/>
    </pattern>
    
    <!-- Alternative leafy texture filter -->
    <filter id="leafyTexture" x="0%" y="0%" width="100%" height="100%">
      <feTurbulence baseFrequency="0.02 0.01" numOctaves="3" result="noise"/>
      <feDisplacementMap in="SourceGraphic" in2="noise" scale="2"/>
      <feGaussianBlur stdDeviation="0.5" result="blur"/>
      <feComposite in="SourceGraphic" in2="blur" operator="multiply"/>
    </filter>
  </defs>
  
  <title>Rivetz - Leafy Arc Experiment</title>
  <g class="d8bfe8c8-e1e1-4306-b0b2-456ed7c74bc7">
    <g id="63dd0e16-04c9-4a69-9e01-fe91479fbff8" data-name="Layer 2">
      <g id="12a95f90-3623-4b3e-86f7-c15fba78f38d" data-name="Layer 1">
        <g>
          <circle class="62a87e57-f018-4b7b-96ac-80a229d194b2" cx="24.92" cy="24.92" r="24.92"/>
          <path class="6b179b56-afb0-485a-8906-db1e23831ff1" d="M28,6.13a21.85,21.85,0,0,0-14.73,38A23.18,23.18,0,0,0,44.12,13.25,21.78,21.78,0,0,0,28,6.13Z"/>
          <path class="fed032d2-50db-4151-b419-bfcee5baa82a" d="M49.79,26.51a21.77,21.77,0,0,0-5.67-13.25A23.18,23.18,0,0,1,13.25,44.12a21.77,21.77,0,0,0,13.25,5.67c-.52,0-1.05.06-1.59.06h0A24.92,24.92,0,0,0,49.84,24.92C49.84,25.46,49.82,26,49.79,26.51Z"/>
          
          <!-- This path now uses the leafy pattern -->
          <path class="b9b85f1f-7ad4-4def-ac23-e6a9e8139ccb" d="M35.58,3.6a24.19,24.19,0,0,0-32,32,23.26,23.26,0,0,0,9.65,8.54A21.85,21.85,0,1,1,44.12,13.25,23.26,23.26,0,0,0,35.58,3.6Z"/>
          
          <path class="e17d4a3f-b00b-4fd1-947c-2a2db5c540c3" d="M49.84,24.92c0,.12,0,.25,0,.37A24.19,24.19,0,0,0,35.58,3.6a23.26,23.26,0,0,1,8.54,9.65,21.77,21.77,0,0,1,5.67,13.25c0-.52.06-1.05.06-1.58h0a25,25,0,0,0-.51-5q-.06-.3-.13-.61-.28-1.21-.67-2.36-.2-.58-.42-1.15-.45-1.13-1-2.21-.28-.54-.58-1.06-.45-.78-1-1.53-.34-.5-.69-1a25.07,25.07,0,0,0-4.12-4.32q-.46-.38-.94-.74t-1-.69q-.5-.34-1-.65t-1-.6Q36,2.58,35.18,2.2A24.74,24.74,0,0,0,29.33.39l-.62-.1A25.11,25.11,0,0,0,24.92,0h0A24.92,24.92,0,0,1,49.84,24.92Z"/>
          <path class="62a87e57-f018-4b7b-96ac-80a229d194b2" d="M49.34,19.9q-.06-.3-.13-.61c0-.11-.06-.21-.08-.32a25,25,0,0,1,.72,5.94c0,.12,0,.25,0,.37A24.19,24.19,0,0,0,35.58,3.6a23.26,23.26,0,0,1,8.54,9.65,21.77,21.77,0,0,1,5.67,13.25c0-.52.06-1.05.06-1.58h0A25,25,0,0,0,49.34,19.9Z"/>
          <path class="e17d4a3f-b00b-4fd1-947c-2a2db5c540c3" d="M13.25,44.12A23.26,23.26,0,0,1,3.6,35.58,24.19,24.19,0,0,0,25.29,49.83h-.37A24.92,24.92,0,0,1,.13,27.47a24.79,24.79,0,0,0,1.18,5.45q.2.58.42,1.15.45,1.13,1,2.21.28.54.58,1.06t.62,1l.33.5q.5.75,1.06,1.45.37.47.76.92.59.68,1.22,1.31.42.42.87.83t.9.78q.46.38.94.74t1,.69a24.89,24.89,0,0,0,3.13,1.8q.54.26,1.1.5a24.73,24.73,0,0,0,3.47,1.17q.6.15,1.21.28.91.19,1.85.31l.63.07a25.21,25.21,0,0,0,2.55.13c.53,0,1.06,0,1.59-.06A21.77,21.77,0,0,1,13.25,44.12Z"/>
          <path class="c28cb72d-2ec3-408f-9d3c-18683f771e82" d="M11,45.59l.16.1-.26-.17Z"/>
          <path class="c28cb72d-2ec3-408f-9d3c-18683f771e82" d="M10.89,45.52l-.54-.38Z"/>
          <path class="c28cb72d-2ec3-408f-9d3c-18683f771e82" d="M12.35,46.44q-.61-.36-1.2-.75Q11.74,46.08,12.35,46.44Z"/>
          <path class="c28cb72d-2ec3-408f-9d3c-18683f771e82" d="M14.12,47.39l.3.14L14,47.31Z"/>
          <path class="c28cb72d-2ec3-408f-9d3c-18683f771e82" d="M14,47.31c-.47-.23-.93-.47-1.38-.73C13,46.84,13.51,47.08,14,47.31Z"/>
          <path class="c28cb72d-2ec3-408f-9d3c-18683f771e82" d="M12.6,46.58l-.24-.14Z"/>
          <path class="c28cb72d-2ec3-408f-9d3c-18683f771e82" d="M10,44.89l.35.25-.41-.3Z"/>
          <path class="c28cb72d-2ec3-408f-9d3c-18683f771e82" d="M8.05,43.26c-.24-.23-.49-.45-.72-.69C7.56,42.81,7.81,43,8.05,43.26Z"/>
          <path class="c28cb72d-2ec3-408f-9d3c-18683f771e82" d="M7.3,42.54l0,0-.1-.11Z"/>
          <path class="c28cb72d-2ec3-408f-9d3c-18683f771e82" d="M9.95,44.84l-.56-.44Z"/>
          <path class="c28cb72d-2ec3-408f-9d3c-18683f771e82" d="M7.22,42.46c-.35-.35-.68-.71-1-1.08C6.54,41.75,6.88,42.11,7.22,42.46Z"/>
          <path class="c28cb72d-2ec3-408f-9d3c-18683f771e82" d="M9.07,44.15l.32.25L9,44.12Z"/>
          <path class="c28cb72d-2ec3-408f-9d3c-18683f771e82" d="M9,44.12l-.75-.65Z"/>
          <path class="c28cb72d-2ec3-408f-9d3c-18683f771e82" d="M8.16,43.37l.12.11-.24-.21Z"/>
          <path class="c28cb72d-2ec3-408f-9d3c-18683f771e82" d="M20.4,49.43l-.31-.06Z"/>
          <path class="c28cb72d-2ec3-408f-9d3c-18683f771e82" d="M21.17,49.56l-.77-.13Z"/>
          <path class="c28cb72d-2ec3-408f-9d3c-18683f771e82" d="M19.5,49.24l-.61-.14Z"/>
          <path class="c28cb72d-2ec3-408f-9d3c-18683f771e82" d="M19.9,49.34l.19,0-.59-.13Z"/>
          <path class="c28cb72d-2ec3-408f-9d3c-18683f771e82" d="M21.5,49.61l-.33,0Z"/>
          <path class="c28cb72d-2ec3-408f-9d3c-18683f771e82" d="M21.75,49.64l.63.07h.09l-1-.11Z"/>
          <path class="c28cb72d-2ec3-408f-9d3c-18683f771e82" d="M18.69,49.06l.19,0-.4-.11Z"/>
          <path class="c28cb72d-2ec3-408f-9d3c-18683f771e82" d="M15.22,47.88l.18.07L15,47.78Z"/>
          <path class="c28cb72d-2ec3-408f-9d3c-18683f771e82" d="M16.89,48.52c-.51-.17-1-.36-1.49-.57C15.89,48.16,16.39,48.35,16.89,48.52Z"/>
          <path class="c28cb72d-2ec3-408f-9d3c-18683f771e82" d="M15,47.78l-.56-.25Z"/>
          <path class="c28cb72d-2ec3-408f-9d3c-18683f771e82" d="M18.48,49c-.49-.13-1-.27-1.44-.43C17.52,48.73,18,48.87,18.48,49Z"/>
          <path class="c28cb72d-2ec3-408f-9d3c-18683f771e82" d="M17,48.57l-.15,0Z"/>
          <path class="c28cb72d-2ec3-408f-9d3c-18683f771e82" d="M.93,31.67l-.11-.42Z"/>
          <path class="c28cb72d-2ec3-408f-9d3c-18683f771e82" d="M.51,29.94c0,.07,0,.15.05.22l-.07-.29Z"/>
          <path class="c28cb72d-2ec3-408f-9d3c-18683f771e82" d="M.49,29.87c-.05-.26-.1-.53-.14-.79C.4,29.34.44,29.61.49,29.87Z"/>
          <path class="c28cb72d-2ec3-408f-9d3c-18683f771e82" d="M.82,31.25q-.14-.54-.26-1.08Q.68,30.71.82,31.25Z"/>
          <path class="c28cb72d-2ec3-408f-9d3c-18683f771e82" d="M6.08,41.23l.14.15L6,41.09Z"/>
          <path class="c28cb72d-2ec3-408f-9d3c-18683f771e82" d="M.35,29.08c0-.13,0-.27-.07-.4C.3,28.81.33,28.95.35,29.08Z"/>
          <path class="c28cb72d-2ec3-408f-9d3c-18683f771e82" d="M1.24,32.67q-.16-.5-.31-1Q1.07,32.17,1.24,32.67Z"/>
          <path class="c28cb72d-2ec3-408f-9d3c-18683f771e82" d="M1.59,33.68c-.08-.22-.17-.44-.24-.66C1.42,33.24,1.51,33.46,1.59,33.68Z"/>
          <path class="c28cb72d-2ec3-408f-9d3c-18683f771e82" d="M23.69,49.81l.94,0Z"/>
          <path class="c28cb72d-2ec3-408f-9d3c-18683f771e82" d="M.28,28.68q-.09-.6-.15-1.21Q.19,28.08.28,28.68Z"/>
          <path class="62a87e57-f018-4b7b-96ac-80a229d194b2" d="M26.51,49.79a21.77,21.77,0,0,1-13.25-5.67A23.26,23.26,0,0,1,3.6,35.58,24.19,24.19,0,0,0,25.29,49.83h-.37C25.45,49.84,26,49.82,26.51,49.79Z"/>
          <path class="c28cb72d-2ec3-408f-9d3c-18683f771e82" d="M23.17,49.78l.51,0Z"/>
          <path class="c28cb72d-2ec3-408f-9d3c-18683f771e82" d="M22.46,49.72l.71.05Z"/>
          <path class="c28cb72d-2ec3-408f-9d3c-18683f771e82" d="M1.31,32.91l0,.11-.11-.35Z"/>
          <path class="c28cb72d-2ec3-408f-9d3c-18683f771e82" d="M3.93,38.35l.33.5.08.11-.45-.67Z"/>
          <path class="c28cb72d-2ec3-408f-9d3c-18683f771e82" d="M1.73,34.06l0,.07-.17-.45Z"/>
          <path class="c28cb72d-2ec3-408f-9d3c-18683f771e82" d="M3.3,37.33l.2.32-.22-.36Z"/>
          <path class="c28cb72d-2ec3-408f-9d3c-18683f771e82" d="M5.25,40.22q-.48-.61-.92-1.26Q4.77,39.61,5.25,40.22Z"/>
          <path class="c28cb72d-2ec3-408f-9d3c-18683f771e82" d="M6,41.09l-.4-.49Z"/>
          <path class="c28cb72d-2ec3-408f-9d3c-18683f771e82" d="M5.32,40.31l.24.29-.31-.38Z"/>
          <path class="c28cb72d-2ec3-408f-9d3c-18683f771e82" d="M3.89,38.29c-.13-.21-.26-.42-.39-.64C3.63,37.86,3.75,38.08,3.89,38.29Z"/>
          <path class="c28cb72d-2ec3-408f-9d3c-18683f771e82" d="M2.22,35.21l-.16-.37Z"/>
          <path class="c28cb72d-2ec3-408f-9d3c-18683f772" d="M2.06,34.84c-.1-.24-.2-.47-.3-.71C1.85,34.37,2,34.6,2.06,34.84Z"/>
          <path class="c28cb72d-2ec3-408f-9d3c-18683f771e82" d="M2.73,36.27l0,.07L2.7,36.2Z"/>
          <path class="c28cb72d-2ec3-408f-9d3c-18683f771e82" d="M3.28,37.29q-.27-.47-.52-1Q3,36.82,3.28,37.29Z"/>
          <path class="c28cb72d-2ec3-408f-9d3c-18683f771e82" d="M2.7,36.2q-.25-.49-.48-1Q2.45,35.71,2.7,36.2Z"/>
          <path class="a2e80ed7-95db-443a-bfc7-fd8ce0814540" d="M24.92,0h0A24.92,24.92,0,0,0,0,24.92H0A24.92,24.92,0,0,1,24.92,0Z"/>
          <path class="d32e3914-e0f1-44fb-b63e-bf770cfa51a2" d="M0,24.92c0-.29,0-.58,0-.87A23.06,23.06,0,0,0,3.6,35.58a24.19,24.19,0,0,1,32-32A23.06,23.06,0,0,0,24,0l.87,0h0A24.92,24.92,0,0,0,0,24.92q0,.65,0,1.28Q0,25.57,0,24.92Z"/>
          <path class="e17d4a3f-b00b-4fd1-947c-2a2db5c540c3" d="M0,24.92q0,.65,0,1.28c0,.34,0,.68.07,1,0,.08,0,.17,0,.25A24.92,24.92,0,0,0,24.92,49.84h.37A24.19,24.19,0,0,1,3.6,35.58,23.06,23.06,0,0,1,0,24C0,24.34,0,24.63,0,24.92Z"/>
          <path class="d32e3914-e0f1-44fb-b63e-bf770cfa51a2" d="M0,24.92q0,.65,0,1.28c0,.34,0,.68.07,1,0,.08,0,.17,0,.25A24.92,24.92,0,0,0,24.92,49.84h.37A24.19,24.19,0,0,1,3.6,35.58,23.06,23.06,0,0,1,0,24C0,24.34,0,24.63,0,24.92Z"/>
          <path class="e17d4a3f-b00b-4fd1-947c-2a2db5c540c3" d="M49.83,25.29c0-.12,0-.25,0-.37A24.92,24.92,0,0,0,24.92,0L24,0A23.06,23.06,0,0,1,35.58,3.6,24.19,24.19,0,0,1,49.83,25.29Z"/>
          <path class="d32e3914-e0f1-44fb-b63e-bf770cfa51a2" d="M49.83,25.29c0-.12,0-.25,0-.37A24.92,24.92,0,0,0,24.92,0L24,0A23.06,23.06,0,0,1,35.58,3.6,24.19,24.19,0,0,1,49.83,25.29Z"/>
          <path class="fed032d2-50db-4151-b419-bfcee5baa82a" d="M24.92,0h0A24.92,24.92,0,0,0,0,24.92q0,.65,0,1.28c0,.34,0,.68.07,1,0,.08,0,.17,0,.25A24.92,24.92,0,0,0,24.92,49.84h.37A24.18,24.18,0,1,1,49.83,25.29c0-.12,0-.25,0-.37A24.92,24.92,0,0,0,24.92,0Z"/>
          <path class="7c7880a8-b000-4c03-aa93-8f90614d78fe" d="M31.54,26.95A10,10,0,1,0,15.14,19.1h0V39.72h0a.38.38,0,0,0,.38.38h3.81a.38.38,0,0,0,.38-.38h0V29.61a.38.38,0,0,1,.36-.38h5.11a5.48,5.48,0,0,1,5.47,5.47h0v5h0a.38.38,0,0,0,.38.38h3.81a.38.38,0,0,0,.38-.38h0V34.6h0A10,10,0,0,0,31.54,26.95Zm-6.37-2.29h-5.1a.38.38,0,0,1-.36-.37V18.91a5.47,5.47,0,1,1,5.46,5.74Z"/>
        </g>
      </g>
    </g>
  </g>
</svg>